<?xml version="1.0" encoding="UTF-8"?>
<svg width="2e3pt" height="2420pt" version="1.1" viewBox="0 0 2000 2420" xmlns="http://www.w3.org/2000/svg">
<g>
<path d="m997.8 141.93c13.168 2.2695 25.234 8.6992 37.539 13.555 180.64 78.133 356.35 169.9 516.38 284.95 84.719 61.754 165.52 130.72 230.33 213.63 44.59 57.523 81.816 123.51 92.867 196.31 12.539 87.379 6.8164 176.09-4.4688 263.24-22.414 164.49-66.77 325.07-117.24 482.9-64.422 198.11-140.75 392.23-225.16 582.59-10.422 28.527-42.395 37.695-67.633 48.664-101.25 36.363-209.09 49.059-315.75 57.836-154.47 11.523-310.43 4.7031-463.17-21.078-63.242-12.07-127.98-25-185.03-56.348-22.648-10.188-28.371-35.895-38.008-56.27-69.906-159.09-133.62-320.84-189.81-485.18-58.387-173.35-110.27-349.75-137.46-530.86-13.559-94.199-21.082-190.43-7.7578-285.1 11.754-78.133 53.449-148.04 102.27-208.7 69.512-85.105 155.02-155.64 244.59-218.57 164.27-113.48 342.55-206.73 527.51-281.57m-271.32 320.13c0.078125 35.344 0.078125 70.609 0.078125 105.88 6.1914 0.078125 18.574 0.15625 24.766 0.23438 0.23438-15.598 0.78516-31.191 1.5664-46.707 12.148 13.949 21.633 29.934 30.016 46.395 7.4453 0.078125 22.336 0.15625 29.781 0.23438-8.543-14.105-17.004-28.215-25.469-42.32 13.242-11.051 26.801-27.113 17.004-45.219-16.145-26.094-52.191-15.906-77.742-18.492m164.66 0.23438c-0.078125 35.266 0 70.453 0 105.72 6.2695 0 18.809 0.078125 25.156 0.078125-0.078125-13.559-0.15625-27.117-0.15625-40.754 13.637 0 27.273 0.078124 40.988 0-0.078124-5.3281-0.15625-15.906-0.15625-21.234-13.637 0-27.195 0.078126-40.754 0.078126 0-5.4102-0.078125-16.066-0.078125-21.395 14.734-0.078125 29.465-0.078125 44.199-0.078125 0.078125-5.5664 0.15625-16.617 0.23438-22.18-23.195-0.15625-46.316-0.15625-69.434-0.23438m151.18 0.078125v105.64c24.449 0 48.824-0.078125 73.273 0 0-5.4102 0-16.301 0.082031-21.711-16.145 0-32.289 0-48.434-0.078125 0-5.25-0.078126-15.75-0.15625-21l43.73-0.23438c-0.078125-5.1758-0.078125-15.676-0.15625-20.848-14.5 0-29 0.078125-43.418 0.078125-0.078126-5.0156-0.078126-14.969-0.078126-19.984h46.082c0-5.4844 0.078125-16.379 0.078125-21.863h-71.004m155.88 0c-0.082031 35.031 0.078125 70.059-0.16016 105.09 8.4648 0.70703 17.008 0.70703 25.551 0.15625-0.078125-13.398-0.15625-26.801-0.15625-40.203 13.637-0.078124 27.352 0 41.066-0.078124 0-5.3281 0.078125-15.906 0.078125-21.234-13.715-0.082031-27.352 0-40.988 0.078126-0.078125-5.4102-0.078125-16.066-0.15625-21.473h44.199c-0.078124-5.5664-0.15625-16.773-0.15625-22.336h-69.277m-759.41 226.88c-12.852 1.957-24.609 7.4453-35.266 14.734 6.8164-0.23828 20.531-0.55078 27.352-0.78516 247.1-25.469 495.92-45.062 744.51-32.289 133.23 5.957 266.3 16.535 398.9 31.035 13.953 1.4102 28.137 2.1172 42.164 1.0977-13.793-8.4648-29.23-12.93-44.984-16.066-217-45.922-439.5-71.078-661.52-60.969-158.46 7.3672-316.22 29.387-471.16 63.242m643.81 171.62c5.3281 10.5 10.816 20.926 16.145 31.426 24.766-9.2461 53.055-23.039 78.996-9.3242 13.012 4.8555 13.949 20.219 18.418 31.344-28.918-5.5625-61.129-12.539-87.93 4.0781-38.246 18.414-41.461 80.719-4.7812 102.19 26.645 16.223 59.246 14.105 88.242 6.1914 13.559 3.4453 27.508 4.0742 41.539 3.6836 1.2539-40.359 2.1133-80.801 0.078125-121.08-0.62891-30.875-23.59-58.305-53.215-65.75-33.309-7.9922-67.711 2.4297-97.492 17.242m-607.6 291.61c-7.3672 18.184 10.031 35.582 26.961 38.637 30.953 7.7578 61.598 18.34 93.492 21.16 21.316-0.78516 29.156-23.121 37.699-38.793 18.887-37.93 51.094-74.996 95.453-80.484 46.785-5.0938 101.49 6.3477 129.39 47.648 22.414 35.812 19.906 81.426 9.4844 120.77-14.734 44.746-50.785 77.898-85.188 108.15-92.555 77.504-185.27 154.85-277.12 233.14-37.148 32.676-22.414 86.438-25.312 129.7-2.3516 19.438 6.6602 44.906 29.547 45.297 166.22 1.4922 332.44 0.16016 498.66 0.62891 0.23828 70.766-0.54687 141.61 0.23828 212.38-2.0391 14.734 10.656 28.527 25.703 26.883 86.52 0.9375 172.96 0 259.48 0.39062 49.449-0.78516 103.68-7.9922 141.54-43.023 43.496-38.949 56.738-101.33 51.488-157.44-7.6016-59.012-54.152-110.03-111.6-124.84 54.152-19.355 90.047-75.938 87.148-132.99-0.31641-47.801-14.266-100.62-54.547-130.32-36.754-28.449-85.031-32.289-129.86-32.523-81.035 0.3125-162.15-0.54688-243.18 0.3125-15.754-1.2539-29.078 13.246-26.254 28.918-0.62891 71.785 0.078125 143.57-0.23828 215.36-87.773 0-175.47-0.23437-263.24 0.15625-13.637-0.3125-27.664 0.62891-40.754-3.9961-6.582-11.676 6.9766-19.121 13.559-26.094 40.203-33.621 81.898-65.438 121.24-100.08 50.469-39.969 99.766-82.992 137.54-135.65 52.352-72.805 68.34-171.39 37.852-256.11-18.023-52.66-57.285-96.469-104.86-124.52-60.578-37.461-135.03-45.926-204.7-37.695-105.64 14.574-194.05 96.391-229.62 195.05m607.21-48.508c49.293 2.5859 98.902 2.0352 148.27 0.39062 11.051-8.8555 10.816-29.938 0.39453-39.184-50.785-2.2734-101.73-0.70312-152.59-0.54688 0.078125 12.93-7.3672 29.543 3.918 39.34z" fill="#fff"/>
<path d="m751.41 482.36c10.66 2.0352 25.707-1.0195 31.035 11.207-0.3125 16.691-19.828 12.223-30.484 16.379-0.16016-6.8984-0.39453-20.691-0.55078-27.586z" fill="#fff"/>
<path d="m1130.9 951.23c17.004-6.8203 36.91-5.7227 53.684 1.332 19.043 8.2266 10.734 40.75-8.7773 42.004-16.301 2.1953-34.406 2.8984-49.062-5.6406-14.73-8.0742-10.5-32.055 4.1562-37.695z" fill="#fff"/>
<path d="m1138.6 1506c26.566-9.0898 56.113-2.3516 83.934-4.3125 32.055 2.2734 70.297-8.5391 96.473 15.676 44.203 36.129 25.863 120.53-31.504 130.95-40.047 4.1523-80.562 0.85938-120.77 1.957-15.438 1.0977-36.598-2.1914-39.262-20.922-2.8984-28.293-1.0195-56.895-1.4102-85.266 0.39062-13.164-1.1758-30.797 12.539-38.086z" fill="#fff"/>
<path d="m1139.3 1758.4c32.211-6.7383 65.988-1.332 98.746-2.9766 38.637 0.78125 86.285-7.0547 113.95 26.957 41.457 45.453 1.8789 130.41-58.699 130.25-47.336 0.16016-94.75 0.86328-142.01-0.3125-12.852 0.70703-24.766-10.734-24.449-23.586-1.8047-31.348-0.62891-62.773-0.86328-94.199 0-13.012 0.078125-29.152 13.32-36.129z" fill="#fff"/>
<path d="m993.89 0h10.66c130.41 52.191 257.21 113.48 379.7 182.29 149.69 85.262 294.83 182.05 416.7 304.69 71.863 73.039 135.58 157.13 170.06 254.46 17.711 48.434 24.059 100 27.43 151.17v105.41c-11.602 175.54-50.473 347.95-98.902 516.6-71.477 246.54-163.4 486.82-265.99 722-10.895 26.016-23.355 52.977-46.629 70.371-50.785 38.871-113.8 56.738-174.92 71.941-114.42 26.805-231.98 37.934-349.22 42.633h-126.72c-133.23-5.875-267.32-18.414-396-55.09-46.945-14.109-94.516-31.504-132.6-63.09-25.629-21-36.285-53.367-49.215-82.676-75.238-172.49-143.81-348.03-203.45-526.55-74.609-228.52-140.52-462.76-154.78-703.82v-99.922c3.7617-55.09 11.441-110.5 32.055-162.06 39.809-102.19 110.34-189.18 188.71-264.49 131.11-124.76 284.79-223.04 443.26-309.24 107.21-57.133 216.85-109.95 329.86-154.62m-3.5273 57.367c-130.8 52.113-256.66 116.3-379.15 185.65-146.55 85.891-289.03 183.14-404.39 309-76.094 84.09-141.38 186.05-151.8 301.64-14.34 150 10.109 300.54 41.848 446.93 72.887 318.72 189.5 625.61 319.2 925.13 8.2266 21.004 21.395 40.516 41.77 51.41 58.074 33.539 124.53 48.586 189.58 62.223 168.57 31.504 341.46 38.008 512.46 25.547 108.78-9.2461 218.5-23.273 322.02-59.715 38.477-14.891 83.539-32.367 98.43-74.922 122.49-281.18 231.98-569.18 306.66-867.06 31.031-128.45 56.27-259.16 60.266-391.53 1.5664-75.859-0.78516-153.99-29.391-225.31-32.207-81.031-85.344-151.95-145.3-214.49-100.08-103.91-218.65-188-341.54-262.77-129.94-78.215-265.91-146.24-405.49-205.4-11.125-3.6836-23.195-11.129-35.188-6.3477z" fill="#70180f"/>
<path d="m990.36 57.367c11.992-4.7812 24.062 2.6641 35.188 6.3477 139.58 59.164 275.55 127.19 405.49 205.4 122.88 74.762 241.46 158.85 341.54 262.77 59.953 62.539 113.09 133.46 145.3 214.49 28.605 71.316 30.957 149.45 29.391 225.31-3.9961 132.36-29.234 263.08-60.266 391.53-74.688 297.88-184.17 585.88-306.66 867.06-14.891 42.555-59.953 60.031-98.43 74.922-103.53 36.441-213.25 50.469-322.02 59.715-171 12.461-343.89 5.957-512.46-25.547-65.047-13.637-131.5-28.684-189.58-62.223-20.375-10.895-33.543-30.406-41.77-51.41-129.7-299.52-246.32-606.41-319.2-925.13-31.738-146.39-56.188-296.94-41.848-446.93 10.422-115.59 75.707-217.55 151.8-301.64 115.36-125.86 257.84-223.11 404.39-309 122.49-69.355 248.36-133.54 379.15-185.65m7.4453 84.559c-184.95 74.84-363.24 168.1-527.51 281.57-89.574 62.93-175.08 133.46-244.59 218.57-48.824 60.66-90.52 130.56-102.27 208.7-13.324 94.668-5.8008 190.9 7.7578 285.1 27.195 181.11 79.074 357.52 137.46 530.86 56.191 164.34 119.91 326.09 189.81 485.18 9.6367 20.375 15.359 46.082 38.008 56.27 57.055 31.348 121.79 44.277 185.03 56.348 152.74 25.781 308.7 32.602 463.17 21.078 106.66-8.7773 214.5-21.473 315.75-57.836 25.238-10.969 57.211-20.137 67.633-48.664 84.406-190.36 160.74-384.47 225.16-582.59 50.469-157.84 94.824-318.41 117.24-482.9 11.285-87.148 17.008-175.86 4.4688-263.24-11.051-72.805-48.277-138.79-92.867-196.31-64.812-82.914-145.61-151.88-230.33-213.63-160.03-115.04-335.73-206.81-516.38-284.95-12.305-4.8555-24.371-11.285-37.539-13.555z" fill="#e20412"/>
<path d="m726.49 462.06c25.551 2.5859 61.598-7.6016 77.742 18.492 9.7969 18.105-3.7617 34.168-17.004 45.219 8.4648 14.105 16.926 28.215 25.469 42.32-7.4453-0.078125-22.336-0.15625-29.781-0.23438-8.3828-16.461-17.867-32.445-30.016-46.395-0.78125 15.516-1.332 31.109-1.5664 46.707-6.1914-0.078125-18.574-0.15625-24.766-0.23438 0-35.266 0-70.531-0.078125-105.88m24.922 20.297c0.15625 6.8945 0.39062 20.688 0.55078 27.586 10.656-4.1562 30.172 0.3125 30.484-16.379-5.3281-12.227-20.375-9.1719-31.035-11.207z" fill="#e20412"/>
<path d="m891.14 462.29c23.117 0.078125 46.238 0.078125 69.434 0.23438-0.078125 5.5625-0.15625 16.613-0.23438 22.18-14.734 0-29.465 0-44.199 0.078125 0 5.3281 0.078125 15.984 0.078125 21.395 13.559 0 27.117-0.078126 40.754-0.078126 0 5.3281 0.078126 15.906 0.15625 21.234-13.715 0.078124-27.352 0-40.988 0 0 13.637 0.078125 27.195 0.15625 40.754-6.3477 0-18.887-0.078125-25.156-0.078125 0-35.266-0.078125-70.453 0-105.72z" fill="#e20412"/>
<path d="m1042.3 462.37h71.004c0 5.4844-0.078125 16.379-0.078125 21.863h-46.082c0 5.0156 0 14.969 0.078126 19.984 14.418 0 28.918-0.078125 43.418-0.078125 0.078125 5.1719 0.078125 15.672 0.15625 20.848l-43.73 0.23438c0.078124 5.25 0.15625 15.75 0.15625 21 16.145 0.078125 32.289 0.078125 48.434 0.078125-0.082031 5.4102-0.082031 16.301-0.082031 21.711-24.449-0.078125-48.824 0-73.273 0z" fill="#e20412"/>
<path d="m1198.2 462.37h69.277c0 5.5625 0.078126 16.77 0.15625 22.336h-44.199c0.078125 5.4062 0.078125 16.062 0.15625 21.473 13.637-0.078126 27.273-0.16016 40.988-0.078126 0 5.3281-0.078125 15.906-0.078125 21.234-13.715 0.078124-27.43 0-41.066 0.078124 0 13.402 0.078125 26.805 0.15625 40.203-8.543 0.55078-17.086 0.55078-25.551-0.15625 0.23828-35.031 0.078126-70.059 0.16016-105.09z" fill="#e20412"/>
<path d="m438.79 689.25c154.94-33.855 312.7-55.875 471.16-63.242 222.02-10.109 444.52 15.047 661.52 60.969 15.754 3.1367 31.191 7.6016 44.984 16.066-14.027 1.0195-28.211 0.3125-42.164-1.0977-132.6-14.5-265.67-25.078-398.9-31.035-248.59-12.773-497.41 6.8203-744.51 32.289-6.8203 0.23438-20.535 0.54688-27.352 0.78516 10.656-7.2891 22.414-12.777 35.266-14.734z" fill="#e20412"/>
<path d="m1082.6 860.87c29.781-14.812 64.184-25.234 97.492-17.242 29.625 7.4453 52.586 34.875 53.215 65.75 2.0352 40.281 1.1758 80.723-0.078125 121.08-14.031 0.39062-27.98-0.23828-41.539-3.6836-28.996 7.9141-61.598 10.031-88.242-6.1914-36.68-21.473-33.465-83.777 4.7812-102.19 26.801-16.617 59.012-9.6406 87.93-4.0781-4.4688-11.125-5.4062-26.488-18.418-31.344-25.941-13.715-54.23 0.078125-78.996 9.3242-5.3281-10.5-10.816-20.926-16.145-31.426m48.277 90.359c-14.656 5.6406-18.887 29.621-4.1562 37.695 14.656 8.5391 32.762 7.8359 49.062 5.6406 19.512-1.2539 27.82-33.777 8.7773-42.004-16.773-7.0547-36.68-8.1523-53.684-1.332z" fill="#1b1b1b"/>
<path d="m475 1152.5c35.578-98.664 123.98-180.48 229.62-195.05 69.668-8.2305 144.12 0.23438 204.7 37.695 47.574 28.055 86.836 71.863 104.86 124.52 30.488 84.719 14.5 183.3-37.852 256.11-37.773 52.66-87.07 95.684-137.54 135.65-39.34 34.641-81.035 66.457-121.24 100.08-6.582 6.9727-20.141 14.418-13.559 26.094 13.09 4.625 27.117 3.6836 40.754 3.9961 87.773-0.39062 175.47-0.15625 263.24-0.15625 0.31641-71.785-0.39063-143.57 0.23828-215.36-2.8242-15.672 10.5-30.172 26.254-28.918 81.031-0.85938 162.14 0 243.18-0.3125 44.828 0.23438 93.105 4.0742 129.86 32.523 40.281 29.703 54.23 82.523 54.547 130.32 2.8984 57.055-32.996 113.64-87.148 132.99 57.445 14.812 104 65.828 111.6 124.84 5.25 56.113-7.9922 118.49-51.488 157.44-37.852 35.031-92.086 42.238-141.54 43.023-86.52-0.39062-172.96 0.54688-259.48-0.39062-15.047 1.6445-27.742-12.148-25.703-26.883-0.78516-70.766 0-141.61-0.23828-212.38-166.22-0.46875-332.44 0.86328-498.66-0.62891-22.887-0.39062-31.898-25.859-29.547-45.297 2.8984-43.258-11.836-97.02 25.312-129.7 91.852-78.293 184.56-155.64 277.12-233.14 34.402-30.25 70.453-63.402 85.188-108.15 10.422-39.34 12.93-84.953-9.4844-120.77-27.898-41.301-82.602-52.742-129.39-47.648-44.359 5.4883-76.566 42.555-95.453 80.484-8.543 15.672-16.383 38.008-37.699 38.793-31.895-2.8203-62.539-13.402-93.492-21.16-16.93-3.0547-34.328-20.453-26.961-38.637m663.56 353.52c-13.715 7.2891-12.148 24.922-12.539 38.086 0.39062 28.371-1.4883 56.973 1.4102 85.266 2.6641 18.73 23.824 22.02 39.262 20.922 40.207-1.0977 80.723 2.1953 120.77-1.957 57.367-10.426 75.707-94.824 31.504-130.95-26.176-24.215-64.418-13.402-96.473-15.676-27.82 1.9609-57.367-4.7773-83.934 4.3125m0.78125 252.42c-13.242 6.9766-13.32 23.117-13.32 36.129 0.23438 31.426-0.94141 62.852 0.86328 94.199-0.31641 12.852 11.598 24.293 24.449 23.586 47.258 1.1758 94.672 0.47266 142.01 0.3125 60.578 0.16016 100.16-84.793 58.699-130.25-27.668-34.012-75.316-26.176-113.95-26.957-32.758 1.6445-66.535-3.7617-98.746 2.9766z" fill="#1b1b1b"/>
<path d="m1082.2 1104c-11.285-9.7969-3.8398-26.41-3.918-39.34 50.859-0.15625 101.8-1.7266 152.59 0.54688 10.422 9.2461 10.656 30.328-0.39453 39.184-49.371 1.6445-98.98 2.1953-148.27-0.39062z" fill="#1b1b1b"/>
</g>
</svg>
